# xmcd
#
# Track frame offsets: 
#        150
#        18401
#        46108
#        62731
#        77292
#        92434
#        117340
#        133158
#        149415
#        170342
#
# Disc length: 2568 seconds
#
# Revision: 0
# Processed by: cddbd v1.5.2PL0 Copyright (c) Steve Scherf et al.
# Submitted via: ExactAudioCopy v1.0b3
#
DISCID=7a0a060a
DTITLE=Stranglers - Giants
DYEAR=2012
DGENRE=New Wave
TTITLE0=Another Camden Afternoon
TTITLE1=Freedom Is Insane
TTITLE2=Giants
TTITLE3=Lowlands
TTITLE4=Boom Boom
TTITLE5=My Fickle Resolve
TTITLE6=Time Was Once On My Side
TTITLE7=Mercury Rising
TTITLE8=Adios (Tango)
TTITLE9=15 Steps
EXTD=
EXTT0=
EXTT1=
EXTT2=
EXTT3=
EXTT4=
EXTT5=
EXTT6=
EXTT7=
EXTT8=
EXTT9=
PLAYORDER=
